<svg width="68" height="68" viewBox="0 0 68 68" fill="none" xmlns="http://www.w3.org/2000/svg">
<path d="M62.4611 34.2198L42.6804 24.3321V13.0625C42.6804 10.8413 41.7981 8.7111 40.2274 7.14048C38.6568 5.56986 36.5266 4.6875 34.3054 4.6875C32.0842 4.6875 29.954 5.56986 28.3834 7.14048C26.8128 8.7111 25.9304 10.8413 25.9304 13.0625V24.3321L6.14972 34.2198C5.80186 34.3939 5.50937 34.6614 5.30505 34.9924C5.10072 35.3234 4.99264 35.7048 4.99292 36.0938V44.4688C4.99309 44.7785 5.06197 45.0843 5.19458 45.3641C5.32719 45.644 5.52024 45.891 5.75981 46.0872C5.99939 46.2835 6.27952 46.4242 6.58001 46.4991C6.88051 46.5741 7.19389 46.5814 7.49757 46.5206L25.9304 42.8356V47.79L22.3553 51.3624C22.161 51.557 22.0068 51.788 21.9018 52.0422C21.7967 52.2963 21.7427 52.5687 21.7429 52.8438V61.2188C21.7423 61.5619 21.8261 61.8999 21.9868 62.2031C22.1476 62.5063 22.3804 62.7653 22.6647 62.9574C22.9491 63.1495 23.2763 63.2687 23.6176 63.3046C23.9588 63.3405 24.3037 63.292 24.6218 63.1633L34.3054 59.2873L43.989 63.1633C44.3071 63.292 44.652 63.3405 44.9933 63.3046C45.3345 63.2687 45.6617 63.1495 45.9461 62.9574C46.2305 62.7653 46.4633 62.5063 46.624 62.2031C46.7848 61.8999 46.8685 61.5619 46.8679 61.2188V52.8438C46.8681 52.5687 46.8142 52.2963 46.7091 52.0422C46.604 51.788 46.4499 51.557 46.2555 51.3624L42.6804 47.79V42.8356L61.1133 46.5206C61.4169 46.5814 61.7303 46.5741 62.0308 46.4991C62.3313 46.4242 62.6115 46.2835 62.851 46.0872C63.0906 45.891 63.2836 45.644 63.4163 45.3641C63.5489 45.0843 63.6177 44.7785 63.6179 44.4688V36.0938C63.6182 35.7048 63.5101 35.3234 63.3058 34.9924C63.1015 34.6614 62.809 34.3939 62.4611 34.2198ZM59.4304 41.9144L40.9976 38.2294C40.6939 38.1686 40.3805 38.1759 40.08 38.2509C39.7795 38.3258 39.4994 38.4665 39.2598 38.6628C39.0202 38.859 38.8272 39.106 38.6946 39.3859C38.562 39.6657 38.4931 39.9715 38.4929 40.2812V48.6562C38.4927 48.9313 38.5467 49.2037 38.6518 49.4578C38.7568 49.712 38.911 49.943 39.1053 50.1376L42.6804 53.71V58.1252L35.0906 55.0867C34.5916 54.8872 34.035 54.8872 33.536 55.0867L25.9304 58.1252V53.71L29.5055 50.1376C29.6999 49.943 29.854 49.712 29.9591 49.4578C30.0642 49.2037 30.1181 48.9313 30.1179 48.6562V40.2812C30.1177 39.9715 30.0489 39.6657 29.9163 39.3859C29.7836 39.106 29.5906 38.859 29.351 38.6628C29.1115 38.4665 28.8313 38.3258 28.5308 38.2509C28.2303 38.1759 27.917 38.1686 27.6133 38.2294L9.18042 41.9144V37.3866L28.9611 27.4989C29.309 27.3248 29.6015 27.0573 29.8058 26.7263C30.0101 26.3953 30.1182 26.014 30.1179 25.625V13.0625C30.1179 11.9519 30.5591 10.8868 31.3444 10.1015C32.1297 9.31618 33.1948 8.875 34.3054 8.875C35.416 8.875 36.4811 9.31618 37.2664 10.1015C38.0517 10.8868 38.4929 11.9519 38.4929 13.0625V25.625C38.4926 26.014 38.6007 26.3953 38.805 26.7263C39.0094 27.0573 39.3019 27.3248 39.6497 27.4989L59.4304 37.3866V41.9144Z" fill="#CCF32F"/>
</svg>
