<svg width="68" height="68" viewBox="0 0 68 68" fill="none" xmlns="http://www.w3.org/2000/svg">
<path d="M36.3992 31.9062V57.0312C36.3992 57.5865 36.1786 58.1191 35.7859 58.5118C35.3933 58.9044 34.8607 59.125 34.3054 59.125C33.7501 59.125 33.2176 58.9044 32.8249 58.5118C32.4323 58.1191 32.2117 57.5865 32.2117 57.0312V31.9062C32.2117 31.351 32.4323 30.8184 32.8249 30.4257C33.2176 30.0331 33.7501 29.8125 34.3054 29.8125C34.8607 29.8125 35.3933 30.0331 35.7859 30.4257C36.1786 30.8184 36.3992 31.351 36.3992 31.9062ZM53.1492 50.75C52.5939 50.75 52.0613 50.9706 51.6687 51.3632C51.276 51.7559 51.0554 52.2885 51.0554 52.8438V57.0312C51.0554 57.5865 51.276 58.1191 51.6687 58.5118C52.0613 58.9044 52.5939 59.125 53.1492 59.125C53.7045 59.125 54.237 58.9044 54.6297 58.5118C55.0223 58.1191 55.2429 57.5865 55.2429 57.0312V52.8438C55.2429 52.2885 55.0223 51.7559 54.6297 51.3632C54.237 50.9706 53.7045 50.75 53.1492 50.75ZM59.4304 42.375H55.2429V10.9688C55.2429 10.4135 55.0223 9.8809 54.6297 9.48825C54.237 9.09559 53.7045 8.875 53.1492 8.875C52.5939 8.875 52.0613 9.09559 51.6687 9.48825C51.276 9.8809 51.0554 10.4135 51.0554 10.9688V42.375H46.8679C46.3126 42.375 45.7801 42.5956 45.3874 42.9882C44.9948 43.3809 44.7742 43.9135 44.7742 44.4688C44.7742 45.024 44.9948 45.5566 45.3874 45.9493C45.7801 46.3419 46.3126 46.5625 46.8679 46.5625H59.4304C59.9857 46.5625 60.5183 46.3419 60.9109 45.9493C61.3036 45.5566 61.5242 45.024 61.5242 44.4688C61.5242 43.9135 61.3036 43.3809 60.9109 42.9882C60.5183 42.5956 59.9857 42.375 59.4304 42.375ZM15.4617 42.375C14.9064 42.375 14.3738 42.5956 13.9812 42.9882C13.5885 43.3809 13.3679 43.9135 13.3679 44.4688V57.0312C13.3679 57.5865 13.5885 58.1191 13.9812 58.5118C14.3738 58.9044 14.9064 59.125 15.4617 59.125C16.017 59.125 16.5495 58.9044 16.9422 58.5118C17.3348 58.1191 17.5554 57.5865 17.5554 57.0312V44.4688C17.5554 43.9135 17.3348 43.3809 16.9422 42.9882C16.5495 42.5956 16.017 42.375 15.4617 42.375ZM21.7429 34H17.5554V10.9688C17.5554 10.4135 17.3348 9.8809 16.9422 9.48825C16.5495 9.09559 16.017 8.875 15.4617 8.875C14.9064 8.875 14.3738 9.09559 13.9812 9.48825C13.5885 9.8809 13.3679 10.4135 13.3679 10.9688V34H9.18042C8.62512 34 8.09257 34.2206 7.69991 34.6132C7.30726 35.0059 7.08667 35.5385 7.08667 36.0938C7.08667 36.649 7.30726 37.1816 7.69991 37.5743C8.09257 37.9669 8.62512 38.1875 9.18042 38.1875H21.7429C22.2982 38.1875 22.8308 37.9669 23.2234 37.5743C23.6161 37.1816 23.8367 36.649 23.8367 36.0938C23.8367 35.5385 23.6161 35.0059 23.2234 34.6132C22.8308 34.2206 22.2982 34 21.7429 34ZM40.5867 21.4375H36.3992V10.9688C36.3992 10.4135 36.1786 9.8809 35.7859 9.48825C35.3933 9.09559 34.8607 8.875 34.3054 8.875C33.7501 8.875 33.2176 9.09559 32.8249 9.48825C32.4323 9.8809 32.2117 10.4135 32.2117 10.9688V21.4375H28.0242C27.4689 21.4375 26.9363 21.6581 26.5437 22.0507C26.151 22.4434 25.9304 22.976 25.9304 23.5312C25.9304 24.0865 26.151 24.6191 26.5437 25.0118C26.9363 25.4044 27.4689 25.625 28.0242 25.625H40.5867C41.142 25.625 41.6745 25.4044 42.0672 25.0118C42.4598 24.6191 42.6804 24.0865 42.6804 23.5312C42.6804 22.976 42.4598 22.4434 42.0672 22.0507C41.6745 21.6581 41.142 21.4375 40.5867 21.4375Z" fill="#CCF32F"/>
</svg>
