<svg width="25" height="25" viewBox="0 0 25 25" fill="none" xmlns="http://www.w3.org/2000/svg">
<path d="M17.8054 2.5H7.80542C5.044 2.5 2.80542 4.73858 2.80542 7.5V17.5C2.80542 20.2614 5.044 22.5 7.80542 22.5H17.8054C20.5668 22.5 22.8054 20.2614 22.8054 17.5V7.5C22.8054 4.73858 20.5668 2.5 17.8054 2.5Z" stroke="black" stroke-width="2" stroke-linecap="round" stroke-linejoin="round"/>
<path d="M16.8054 11.8701C16.9288 12.7023 16.7867 13.5523 16.3992 14.2991C16.0117 15.0459 15.3986 15.6515 14.6471 16.0297C13.8955 16.408 13.0439 16.5397 12.2132 16.406C11.3826 16.2723 10.6152 15.8801 10.0203 15.2852C9.42535 14.6903 9.03316 13.9229 8.8995 13.0923C8.76584 12.2616 8.8975 11.41 9.27576 10.6584C9.65402 9.90691 10.2596 9.2938 11.0064 8.9063C11.7532 8.5188 12.6032 8.37665 13.4354 8.50006C14.2844 8.62594 15.0703 9.02152 15.6771 9.62836C16.284 10.2352 16.6795 11.0211 16.8054 11.8701Z" stroke="black" stroke-width="2" stroke-linecap="round" stroke-linejoin="round"/>
<path d="M18.3054 7H18.3154" stroke="black" stroke-width="2" stroke-linecap="round" stroke-linejoin="round"/>
</svg>
