<svg width="25" height="25" viewBox="0 0 25 25" fill="none" xmlns="http://www.w3.org/2000/svg">
<path d="M16.8054 8.5C18.3967 8.5 19.9228 9.13214 21.0481 10.2574C22.1733 11.3826 22.8054 12.9087 22.8054 14.5V21.5H18.8054V14.5C18.8054 13.9696 18.5947 13.4609 18.2196 13.0858C17.8446 12.7107 17.3359 12.5 16.8054 12.5C16.275 12.5 15.7663 12.7107 15.3912 13.0858C15.0161 13.4609 14.8054 13.9696 14.8054 14.5V21.5H10.8054V14.5C10.8054 12.9087 11.4376 11.3826 12.5628 10.2574C13.688 9.13214 15.2141 8.5 16.8054 8.5Z" stroke="black" stroke-width="2" stroke-linecap="round" stroke-linejoin="round"/>
<path d="M6.80542 9.5H2.80542V21.5H6.80542V9.5Z" stroke="black" stroke-width="2" stroke-linecap="round" stroke-linejoin="round"/>
<path d="M4.80542 6.5C5.90999 6.5 6.80542 5.60457 6.80542 4.5C6.80542 3.39543 5.90999 2.5 4.80542 2.5C3.70085 2.5 2.80542 3.39543 2.80542 4.5C2.80542 5.60457 3.70085 6.5 4.80542 6.5Z" stroke="black" stroke-width="2" stroke-linecap="round" stroke-linejoin="round"/>
</svg>
