<svg width="68" height="68" viewBox="0 0 68 68" fill="none" xmlns="http://www.w3.org/2000/svg">
<path d="M55.2429 10.9688H13.3679C12.2573 10.9688 11.1922 11.4099 10.4069 12.1952C9.6216 12.9805 9.18042 14.0457 9.18042 15.1562V30.5401C9.18042 53.9927 29.0239 61.7736 32.9968 63.0953C33.8454 63.3838 34.7655 63.3838 35.614 63.0953C39.5921 61.7736 59.4304 53.9927 59.4304 30.5401V15.1562C59.4304 14.0457 58.9892 12.9805 58.2039 12.1952C57.4186 11.4099 56.3535 10.9688 55.2429 10.9688ZM55.2429 30.5427C55.2429 51.0667 37.8779 57.9237 34.3054 59.1171C30.7644 57.9368 13.3679 51.085 13.3679 30.5427V15.1562H55.2429V30.5427ZM22.3553 37.5751C21.9625 37.1822 21.7418 36.6494 21.7418 36.0938C21.7418 35.5381 21.9625 35.0053 22.3553 34.6124C22.7482 34.2195 23.2811 33.9988 23.8367 33.9988C24.3923 33.9988 24.9251 34.2195 25.318 34.6124L30.1179 39.4123L43.2928 26.2374C43.4874 26.0429 43.7183 25.8886 43.9725 25.7833C44.2266 25.678 44.4991 25.6238 44.7742 25.6238C45.0493 25.6238 45.3217 25.678 45.5759 25.7833C45.83 25.8886 46.061 26.0429 46.2555 26.2374C46.45 26.432 46.6043 26.6629 46.7096 26.9171C46.8149 27.1712 46.8691 27.4436 46.8691 27.7188C46.8691 27.9939 46.8149 28.2663 46.7096 28.5204C46.6043 28.7746 46.45 29.0055 46.2555 29.2001L31.5992 43.8563C31.4048 44.051 31.1739 44.2054 30.9197 44.3108C30.6655 44.4162 30.3931 44.4704 30.1179 44.4704C29.8428 44.4704 29.5703 44.4162 29.3161 44.3108C29.062 44.2054 28.831 44.051 28.6366 43.8563L22.3553 37.5751Z" fill="#CCF32F"/>
</svg>
